# Blender 4.4.3
# www.blender.org
mtllib circle.mtl
o トーラス
v 2.500000 0.000000 0.000000
v 2.433013 -0.000000 0.000125
v 2.250000 -0.000000 0.000217
v 2.000000 -0.000000 0.000250
v 1.750000 -0.000000 0.000217
v 1.566987 -0.000000 0.000125
v 1.500000 -0.000000 0.000000
v 1.566987 0.000000 -0.000125
v 1.750000 0.000000 -0.000217
v 2.000000 0.000000 -0.000250
v 2.250000 0.000000 -0.000217
v 2.433013 0.000000 -0.000125
v 2.478612 0.326315 0.000000
v 2.412198 0.317572 0.000125
v 2.230751 0.293684 0.000217
v 1.982890 0.261052 0.000250
v 1.735029 0.228421 0.000217
v 1.553581 0.204533 0.000125
v 1.487167 0.195789 0.000000
v 1.553581 0.204533 -0.000125
v 1.735029 0.228421 -0.000216
v 1.982890 0.261052 -0.000250
v 2.230751 0.293684 -0.000216
v 2.412198 0.317572 -0.000125
v 2.414814 0.647047 0.000000
v 2.350110 0.629710 0.000125
v 2.173333 0.582343 0.000217
v 1.931852 0.517638 0.000250
v 1.690370 0.452933 0.000217
v 1.513593 0.405566 0.000125
v 1.448889 0.388228 0.000000
v 1.513593 0.405566 -0.000125
v 1.690370 0.452933 -0.000216
v 1.931852 0.517638 -0.000250
v 2.173333 0.582343 -0.000216
v 2.350110 0.629710 -0.000125
v 2.309699 0.956708 0.000000
v 2.247811 0.931073 0.000125
v 2.078729 0.861038 0.000217
v 1.847759 0.765367 0.000250
v 1.616789 0.669696 0.000217
v 1.447708 0.599660 0.000125
v 1.385819 0.574025 0.000000
v 1.447708 0.599660 -0.000125
v 1.616789 0.669696 -0.000216
v 1.847759 0.765367 -0.000250
v 2.078729 0.861038 -0.000216
v 2.247811 0.931073 -0.000125
v 2.165063 1.250000 0.000000
v 2.107051 1.216507 0.000125
v 1.948557 1.125000 0.000217
v 1.732051 1.000000 0.000250
v 1.515544 0.875000 0.000217
v 1.357051 0.783494 0.000125
v 1.299038 0.750000 0.000000
v 1.357051 0.783494 -0.000125
v 1.515544 0.875000 -0.000216
v 1.732051 1.000000 -0.000250
v 1.948557 1.125000 -0.000216
v 2.107051 1.216507 -0.000125
v 1.983384 1.521903 0.000000
v 1.930239 1.481124 0.000125
v 1.785045 1.369713 0.000217
v 1.586707 1.217523 0.000250
v 1.388368 1.065332 0.000217
v 1.243175 0.953921 0.000125
v 1.190030 0.913142 0.000000
v 1.243175 0.953921 -0.000125
v 1.388368 1.065332 -0.000216
v 1.586707 1.217523 -0.000250
v 1.785045 1.369713 -0.000216
v 1.930239 1.481124 -0.000125
v 1.767767 1.767767 0.000000
v 1.720400 1.720400 0.000125
v 1.590990 1.590990 0.000217
v 1.414213 1.414214 0.000250
v 1.237437 1.237437 0.000217
v 1.108027 1.108027 0.000125
v 1.060660 1.060660 0.000000
v 1.108027 1.108027 -0.000125
v 1.237437 1.237437 -0.000216
v 1.414213 1.414214 -0.000250
v 1.590990 1.590990 -0.000216
v 1.720400 1.720400 -0.000125
v 1.521904 1.983383 0.000000
v 1.481125 1.930238 0.000125
v 1.369714 1.785045 0.000217
v 1.217523 1.586706 0.000250
v 1.065333 1.388368 0.000217
v 0.953922 1.243174 0.000125
v 0.913142 1.190030 0.000000
v 0.953922 1.243174 -0.000125
v 1.065333 1.388368 -0.000216
v 1.217523 1.586706 -0.000250
v 1.369714 1.785045 -0.000216
v 1.481125 1.930238 -0.000125
v 1.250000 2.165064 0.000000
v 1.216506 2.107051 0.000125
v 1.125000 1.948557 0.000217
v 1.000000 1.732051 0.000250
v 0.875000 1.515545 0.000217
v 0.783494 1.357051 0.000125
v 0.750000 1.299038 0.000000
v 0.783494 1.357051 -0.000125
v 0.875000 1.515545 -0.000216
v 1.000000 1.732051 -0.000250
v 1.125000 1.948557 -0.000216
v 1.216506 2.107051 -0.000125
v 0.956709 2.309699 0.000000
v 0.931074 2.247810 0.000125
v 0.861038 2.078729 0.000217
v 0.765367 1.847759 0.000250
v 0.669696 1.616789 0.000217
v 0.599660 1.447707 0.000125
v 0.574026 1.385819 0.000000
v 0.599660 1.447707 -0.000125
v 0.669696 1.616789 -0.000216
v 0.765367 1.847759 -0.000250
v 0.861038 2.078729 -0.000216
v 0.931074 2.247810 -0.000125
v 0.647048 2.414814 0.000000
v 0.629710 2.350110 0.000125
v 0.582343 2.173333 0.000217
v 0.517638 1.931852 0.000250
v 0.452933 1.690370 0.000217
v 0.405566 1.513593 0.000125
v 0.388229 1.448889 0.000000
v 0.405566 1.513593 -0.000125
v 0.452933 1.690370 -0.000216
v 0.517638 1.931852 -0.000250
v 0.582343 2.173333 -0.000216
v 0.629710 2.350110 -0.000125
v 0.326315 2.478612 0.000000
v 0.317571 2.412198 0.000125
v 0.293684 2.230751 0.000217
v 0.261052 1.982890 0.000250
v 0.228421 1.735029 0.000217
v 0.204533 1.553581 0.000125
v 0.195789 1.487167 0.000000
v 0.204533 1.553581 -0.000125
v 0.228421 1.735029 -0.000216
v 0.261052 1.982890 -0.000250
v 0.293684 2.230751 -0.000216
v 0.317571 2.412198 -0.000125
v 0.000000 2.500000 0.000000
v 0.000000 2.433013 0.000125
v 0.000000 2.250000 0.000217
v 0.000000 2.000000 0.000250
v 0.000000 1.750000 0.000217
v 0.000000 1.566987 0.000125
v 0.000000 1.500000 0.000000
v 0.000000 1.566987 -0.000125
v 0.000000 1.750000 -0.000216
v 0.000000 2.000000 -0.000250
v 0.000000 2.250000 -0.000216
v 0.000000 2.433013 -0.000125
v -0.326316 2.478612 0.000000
v -0.317572 2.412198 0.000125
v -0.293684 2.230751 0.000217
v -0.261053 1.982890 0.000250
v -0.228421 1.735029 0.000217
v -0.204533 1.553581 0.000125
v -0.195790 1.487167 0.000000
v -0.204533 1.553581 -0.000125
v -0.228421 1.735029 -0.000216
v -0.261053 1.982890 -0.000250
v -0.293684 2.230751 -0.000216
v -0.317572 2.412198 -0.000125
v -0.647047 2.414815 0.000000
v -0.629710 2.350110 0.000125
v -0.582343 2.173333 0.000217
v -0.517638 1.931852 0.000250
v -0.452933 1.690370 0.000217
v -0.405566 1.513594 0.000125
v -0.388228 1.448889 0.000000
v -0.405566 1.513594 -0.000125
v -0.452933 1.690370 -0.000216
v -0.517638 1.931852 -0.000250
v -0.582343 2.173333 -0.000216
v -0.629710 2.350110 -0.000125
v -0.956709 2.309699 0.000000
v -0.931074 2.247811 0.000125
v -0.861038 2.078729 0.000217
v -0.765367 1.847759 0.000250
v -0.669696 1.616789 0.000217
v -0.599660 1.447707 0.000125
v -0.574025 1.385819 0.000000
v -0.599660 1.447707 -0.000125
v -0.669696 1.616789 -0.000216
v -0.765367 1.847759 -0.000250
v -0.861038 2.078729 -0.000216
v -0.931074 2.247811 -0.000125
v -1.250000 2.165064 0.000000
v -1.216506 2.107051 0.000125
v -1.125000 1.948557 0.000217
v -1.000000 1.732051 0.000250
v -0.875000 1.515545 0.000217
v -0.783493 1.357051 0.000125
v -0.750000 1.299038 0.000000
v -0.783493 1.357051 -0.000125
v -0.875000 1.515545 -0.000216
v -1.000000 1.732051 -0.000250
v -1.125000 1.948557 -0.000216
v -1.216506 2.107051 -0.000125
v -1.521904 1.983383 0.000000
v -1.481124 1.930239 0.000125
v -1.369713 1.785045 0.000217
v -1.217523 1.586707 0.000250
v -1.065333 1.388368 0.000217
v -0.953921 1.243175 0.000125
v -0.913142 1.190030 0.000000
v -0.953921 1.243175 -0.000125
v -1.065333 1.388368 -0.000216
v -1.217523 1.586707 -0.000250
v -1.369713 1.785045 -0.000216
v -1.481124 1.930239 -0.000125
v -1.767767 1.767766 0.000000
v -1.720400 1.720399 0.000125
v -1.590991 1.590990 0.000217
v -1.414214 1.414213 0.000250
v -1.237437 1.237437 0.000217
v -1.108028 1.108027 0.000125
v -1.060660 1.060660 0.000000
v -1.108028 1.108027 -0.000125
v -1.237437 1.237437 -0.000216
v -1.414214 1.414213 -0.000250
v -1.590991 1.590990 -0.000216
v -1.720400 1.720399 -0.000125
v -1.983383 1.521904 0.000000
v -1.930239 1.481124 0.000125
v -1.785045 1.369713 0.000217
v -1.586707 1.217523 0.000250
v -1.388368 1.065333 0.000217
v -1.243175 0.953921 0.000125
v -1.190030 0.913142 0.000000
v -1.243175 0.953921 -0.000125
v -1.388368 1.065333 -0.000216
v -1.586707 1.217523 -0.000250
v -1.785045 1.369713 -0.000216
v -1.930239 1.481124 -0.000125
v -2.165063 1.250001 0.000000
v -2.107050 1.216507 0.000125
v -1.948557 1.125000 0.000217
v -1.732051 1.000000 0.000250
v -1.515544 0.875000 0.000217
v -1.357051 0.783494 0.000125
v -1.299038 0.750000 0.000000
v -1.357051 0.783494 -0.000125
v -1.515544 0.875000 -0.000216
v -1.732051 1.000000 -0.000250
v -1.948557 1.125000 -0.000216
v -2.107050 1.216507 -0.000125
v -2.309699 0.956709 0.000000
v -2.247811 0.931074 0.000125
v -2.078729 0.861038 0.000217
v -1.847759 0.765367 0.000250
v -1.616789 0.669696 0.000217
v -1.447707 0.599660 0.000125
v -1.385819 0.574025 0.000000
v -1.447707 0.599660 -0.000125
v -1.616789 0.669696 -0.000216
v -1.847759 0.765367 -0.000250
v -2.078729 0.861038 -0.000216
v -2.247811 0.931074 -0.000125
v -2.414815 0.647047 0.000000
v -2.350110 0.629710 0.000125
v -2.173333 0.582343 0.000217
v -1.931852 0.517638 0.000250
v -1.690370 0.452933 0.000217
v -1.513594 0.405566 0.000125
v -1.448889 0.388228 0.000000
v -1.513594 0.405566 -0.000125
v -1.690370 0.452933 -0.000216
v -1.931852 0.517638 -0.000250
v -2.173333 0.582343 -0.000216
v -2.350110 0.629710 -0.000125
v -2.478612 0.326316 0.000000
v -2.412198 0.317572 0.000125
v -2.230751 0.293684 0.000217
v -1.982890 0.261053 0.000250
v -1.735029 0.228421 0.000217
v -1.553581 0.204533 0.000125
v -1.487167 0.195789 0.000000
v -1.553581 0.204533 -0.000125
v -1.735029 0.228421 -0.000216
v -1.982890 0.261053 -0.000250
v -2.230751 0.293684 -0.000216
v -2.412198 0.317572 -0.000125
v -2.500000 0.000000 0.000000
v -2.433013 0.000000 0.000125
v -2.250000 0.000000 0.000217
v -2.000000 0.000000 0.000250
v -1.750000 0.000000 0.000217
v -1.566987 0.000000 0.000125
v -1.500000 0.000000 0.000000
v -1.566987 0.000000 -0.000125
v -1.750000 0.000000 -0.000217
v -2.000000 0.000000 -0.000250
v -2.250000 0.000000 -0.000217
v -2.433013 0.000000 -0.000125
v -2.478612 -0.326316 -0.000000
v -2.412198 -0.317572 0.000125
v -2.230751 -0.293684 0.000216
v -1.982890 -0.261053 0.000250
v -1.735029 -0.228421 0.000216
v -1.553581 -0.204533 0.000125
v -1.487167 -0.195789 -0.000000
v -1.553581 -0.204533 -0.000125
v -1.735029 -0.228421 -0.000217
v -1.982890 -0.261053 -0.000250
v -2.230751 -0.293684 -0.000217
v -2.412198 -0.317572 -0.000125
v -2.414815 -0.647047 -0.000000
v -2.350110 -0.629710 0.000125
v -2.173333 -0.582343 0.000216
v -1.931852 -0.517638 0.000250
v -1.690370 -0.452933 0.000216
v -1.513594 -0.405566 0.000125
v -1.448889 -0.388228 -0.000000
v -1.513594 -0.405566 -0.000125
v -1.690370 -0.452933 -0.000217
v -1.931852 -0.517638 -0.000250
v -2.173333 -0.582343 -0.000217
v -2.350110 -0.629710 -0.000125
v -2.309699 -0.956708 -0.000000
v -2.247811 -0.931073 0.000125
v -2.078729 -0.861037 0.000216
v -1.847759 -0.765366 0.000250
v -1.616789 -0.669695 0.000216
v -1.447708 -0.599660 0.000125
v -1.385820 -0.574025 -0.000000
v -1.447708 -0.599660 -0.000125
v -1.616789 -0.669695 -0.000217
v -1.847759 -0.765366 -0.000250
v -2.078729 -0.861037 -0.000217
v -2.247811 -0.931073 -0.000125
v -2.165064 -1.250000 -0.000000
v -2.107051 -1.216506 0.000125
v -1.948557 -1.125000 0.000216
v -1.732051 -1.000000 0.000250
v -1.515545 -0.875000 0.000216
v -1.357051 -0.783493 0.000125
v -1.299038 -0.750000 -0.000000
v -1.357051 -0.783493 -0.000125
v -1.515545 -0.875000 -0.000217
v -1.732051 -1.000000 -0.000250
v -1.948557 -1.125000 -0.000217
v -2.107051 -1.216506 -0.000125
v -1.983383 -1.521904 -0.000000
v -1.930239 -1.481124 0.000125
v -1.785045 -1.369713 0.000216
v -1.586707 -1.217523 0.000250
v -1.388368 -1.065333 0.000216
v -1.243175 -0.953921 0.000125
v -1.190030 -0.913142 -0.000000
v -1.243175 -0.953921 -0.000125
v -1.388368 -1.065333 -0.000217
v -1.586707 -1.217523 -0.000250
v -1.785045 -1.369713 -0.000217
v -1.930239 -1.481124 -0.000125
v -1.767767 -1.767766 -0.000000
v -1.720400 -1.720399 0.000125
v -1.590991 -1.590990 0.000216
v -1.414214 -1.414213 0.000250
v -1.237437 -1.237437 0.000216
v -1.108028 -1.108027 0.000125
v -1.060660 -1.060660 -0.000000
v -1.108028 -1.108027 -0.000125
v -1.237437 -1.237437 -0.000217
v -1.414214 -1.414213 -0.000250
v -1.590991 -1.590990 -0.000217
v -1.720400 -1.720399 -0.000125
v -1.521905 -1.983383 -0.000000
v -1.481125 -1.930238 0.000125
v -1.369714 -1.785044 0.000216
v -1.217524 -1.586706 0.000250
v -1.065333 -1.388368 0.000216
v -0.953922 -1.243174 0.000125
v -0.913143 -1.190030 -0.000000
v -0.953922 -1.243174 -0.000125
v -1.065333 -1.388368 -0.000217
v -1.217524 -1.586706 -0.000250
v -1.369714 -1.785044 -0.000217
v -1.481125 -1.930238 -0.000125
v -1.250000 -2.165064 -0.000000
v -1.216506 -2.107051 0.000125
v -1.125000 -1.948557 0.000216
v -1.000000 -1.732051 0.000250
v -0.875000 -1.515545 0.000216
v -0.783493 -1.357051 0.000125
v -0.750000 -1.299038 -0.000000
v -0.783493 -1.357051 -0.000125
v -0.875000 -1.515545 -0.000217
v -1.000000 -1.732051 -0.000250
v -1.125000 -1.948557 -0.000217
v -1.216506 -2.107051 -0.000125
v -0.956709 -2.309699 -0.000000
v -0.931074 -2.247811 0.000125
v -0.861038 -2.078729 0.000216
v -0.765367 -1.847759 0.000250
v -0.669696 -1.616789 0.000216
v -0.599660 -1.447707 0.000125
v -0.574025 -1.385819 -0.000000
v -0.599660 -1.447707 -0.000125
v -0.669696 -1.616789 -0.000217
v -0.765367 -1.847759 -0.000250
v -0.861038 -2.078729 -0.000217
v -0.931074 -2.247811 -0.000125
v -0.647048 -2.414814 -0.000000
v -0.629711 -2.350110 0.000125
v -0.582344 -2.173333 0.000216
v -0.517639 -1.931852 0.000250
v -0.452934 -1.690370 0.000216
v -0.405567 -1.513593 0.000125
v -0.388229 -1.448889 -0.000000
v -0.405567 -1.513593 -0.000125
v -0.452934 -1.690370 -0.000217
v -0.517639 -1.931852 -0.000250
v -0.582344 -2.173333 -0.000217
v -0.629711 -2.350110 -0.000125
v -0.326317 -2.478612 -0.000000
v -0.317573 -2.412198 0.000125
v -0.293685 -2.230751 0.000216
v -0.261054 -1.982890 0.000250
v -0.228422 -1.735028 0.000216
v -0.204534 -1.553581 0.000125
v -0.195790 -1.487167 -0.000000
v -0.204534 -1.553581 -0.000125
v -0.228422 -1.735028 -0.000217
v -0.261054 -1.982890 -0.000250
v -0.293685 -2.230751 -0.000217
v -0.317573 -2.412198 -0.000125
v 0.000000 -2.500000 -0.000000
v 0.000000 -2.433013 0.000125
v 0.000000 -2.250000 0.000216
v 0.000000 -2.000000 0.000250
v 0.000000 -1.750000 0.000216
v 0.000000 -1.566987 0.000125
v 0.000000 -1.500000 -0.000000
v 0.000000 -1.566987 -0.000125
v 0.000000 -1.750000 -0.000217
v 0.000000 -2.000000 -0.000250
v 0.000000 -2.250000 -0.000217
v 0.000000 -2.433013 -0.000125
v 0.326315 -2.478612 -0.000000
v 0.317571 -2.412198 0.000125
v 0.293684 -2.230751 0.000216
v 0.261052 -1.982890 0.000250
v 0.228421 -1.735029 0.000216
v 0.204533 -1.553581 0.000125
v 0.195789 -1.487167 -0.000000
v 0.204533 -1.553581 -0.000125
v 0.228421 -1.735029 -0.000217
v 0.261052 -1.982890 -0.000250
v 0.293684 -2.230751 -0.000217
v 0.317571 -2.412198 -0.000125
v 0.647047 -2.414815 -0.000000
v 0.629709 -2.350110 0.000125
v 0.582342 -2.173333 0.000216
v 0.517637 -1.931852 0.000250
v 0.452933 -1.690370 0.000216
v 0.405565 -1.513594 0.000125
v 0.388228 -1.448889 -0.000000
v 0.405565 -1.513594 -0.000125
v 0.452933 -1.690370 -0.000217
v 0.517637 -1.931852 -0.000250
v 0.582342 -2.173333 -0.000217
v 0.629709 -2.350110 -0.000125
v 0.956709 -2.309699 -0.000000
v 0.931074 -2.247810 0.000125
v 0.861038 -2.078729 0.000216
v 0.765367 -1.847759 0.000250
v 0.669696 -1.616789 0.000216
v 0.599660 -1.447707 0.000125
v 0.574026 -1.385819 -0.000000
v 0.599660 -1.447707 -0.000125
v 0.669696 -1.616789 -0.000217
v 0.765367 -1.847759 -0.000250
v 0.861038 -2.078729 -0.000217
v 0.931074 -2.247810 -0.000125
v 1.250000 -2.165064 -0.000000
v 1.216506 -2.107051 0.000125
v 1.125000 -1.948557 0.000216
v 1.000000 -1.732051 0.000250
v 0.875000 -1.515545 0.000216
v 0.783494 -1.357051 0.000125
v 0.750000 -1.299038 -0.000000
v 0.783494 -1.357051 -0.000125
v 0.875000 -1.515545 -0.000217
v 1.000000 -1.732051 -0.000250
v 1.125000 -1.948557 -0.000217
v 1.216506 -2.107051 -0.000125
v 1.521903 -1.983384 -0.000000
v 1.481124 -1.930239 0.000125
v 1.369713 -1.785045 0.000216
v 1.217522 -1.586707 0.000250
v 1.065332 -1.388369 0.000216
v 0.953921 -1.243175 0.000125
v 0.913142 -1.190030 -0.000000
v 0.953921 -1.243175 -0.000125
v 1.065332 -1.388369 -0.000217
v 1.217522 -1.586707 -0.000250
v 1.369713 -1.785045 -0.000217
v 1.481124 -1.930239 -0.000125
v 1.767766 -1.767768 -0.000000
v 1.720399 -1.720401 0.000125
v 1.590989 -1.590991 0.000216
v 1.414213 -1.414214 0.000250
v 1.237436 -1.237438 0.000216
v 1.108027 -1.108028 0.000125
v 1.060660 -1.060661 -0.000000
v 1.108027 -1.108028 -0.000125
v 1.237436 -1.237438 -0.000217
v 1.414213 -1.414214 -0.000250
v 1.590989 -1.590991 -0.000217
v 1.720399 -1.720401 -0.000125
v 1.983384 -1.521903 -0.000000
v 1.930239 -1.481124 0.000125
v 1.785045 -1.369713 0.000216
v 1.586707 -1.217523 0.000250
v 1.388368 -1.065332 0.000216
v 1.243175 -0.953921 0.000125
v 1.190030 -0.913142 -0.000000
v 1.243175 -0.953921 -0.000125
v 1.388368 -1.065332 -0.000217
v 1.586707 -1.217523 -0.000250
v 1.785045 -1.369713 -0.000217
v 1.930239 -1.481124 -0.000125
v 2.165063 -1.250000 -0.000000
v 2.107051 -1.216507 0.000125
v 1.948557 -1.125000 0.000216
v 1.732051 -1.000000 0.000250
v 1.515544 -0.875000 0.000216
v 1.357051 -0.783494 0.000125
v 1.299038 -0.750000 -0.000000
v 1.357051 -0.783494 -0.000125
v 1.515544 -0.875000 -0.000217
v 1.732051 -1.000000 -0.000250
v 1.948557 -1.125000 -0.000217
v 2.107051 -1.216507 -0.000125
v 2.309699 -0.956710 -0.000000
v 2.247810 -0.931075 0.000125
v 2.078729 -0.861039 0.000216
v 1.847759 -0.765368 0.000250
v 1.616789 -0.669697 0.000216
v 1.447707 -0.599661 0.000125
v 1.385819 -0.574026 -0.000000
v 1.447707 -0.599661 -0.000125
v 1.616789 -0.669697 -0.000217
v 1.847759 -0.765368 -0.000250
v 2.078729 -0.861039 -0.000217
v 2.247810 -0.931075 -0.000125
v 2.414815 -0.647047 -0.000000
v 2.350110 -0.629709 0.000125
v 2.173333 -0.582342 0.000216
v 1.931852 -0.517638 0.000250
v 1.690370 -0.452933 0.000216
v 1.513594 -0.405566 0.000125
v 1.448889 -0.388228 -0.000000
v 1.513594 -0.405566 -0.000125
v 1.690370 -0.452933 -0.000217
v 1.931852 -0.517638 -0.000250
v 2.173333 -0.582342 -0.000217
v 2.350110 -0.629709 -0.000125
v 2.478612 -0.326315 -0.000000
v 2.412198 -0.317572 0.000125
v 2.230751 -0.293684 0.000216
v 1.982890 -0.261052 0.000250
v 1.735029 -0.228421 0.000216
v 1.553581 -0.204533 0.000125
v 1.487167 -0.195789 -0.000000
v 1.553581 -0.204533 -0.000125
v 1.735029 -0.228421 -0.000217
v 1.982890 -0.261052 -0.000250
v 2.230751 -0.293684 -0.000217
v 2.412198 -0.317572 -0.000125
vn 0.0019 0.0001 1.0000
vn 0.0005 -0.0000 1.0000
vn 0.0001 -0.0000 1.0000
vn -0.0001 -0.0000 1.0000
vn -0.0005 -0.0000 1.0000
vn -0.0019 -0.0001 1.0000
vn -0.0019 -0.0001 -1.0000
vn -0.0005 -0.0000 -1.0000
vn -0.0001 -0.0000 -1.0000
vn 0.0001 -0.0000 -1.0000
vn 0.0005 -0.0000 -1.0000
vn 0.0019 0.0001 -1.0000
vn 0.0018 0.0004 1.0000
vn 0.0005 0.0001 1.0000
vn -0.0005 -0.0001 1.0000
vn -0.0018 -0.0004 1.0000
vn -0.0018 -0.0004 -1.0000
vn -0.0005 -0.0001 -1.0000
vn 0.0005 0.0001 -1.0000
vn 0.0018 0.0004 -1.0000
vn 0.0018 0.0006 1.0000
vn 0.0005 0.0002 1.0000
vn -0.0005 -0.0002 1.0000
vn -0.0018 -0.0006 1.0000
vn -0.0018 -0.0006 -1.0000
vn -0.0005 -0.0002 -1.0000
vn 0.0005 0.0002 -1.0000
vn 0.0018 0.0006 -1.0000
vn 0.0017 0.0008 1.0000
vn 0.0004 0.0002 1.0000
vn 0.0001 0.0001 1.0000
vn -0.0001 -0.0001 1.0000
vn -0.0004 -0.0002 1.0000
vn -0.0017 -0.0008 1.0000
vn -0.0017 -0.0008 -1.0000
vn -0.0004 -0.0002 -1.0000
vn -0.0001 -0.0001 -1.0000
vn 0.0001 0.0001 -1.0000
vn 0.0004 0.0002 -1.0000
vn 0.0017 0.0008 -1.0000
vn 0.0016 0.0010 1.0000
vn 0.0004 0.0003 1.0000
vn -0.0004 -0.0003 1.0000
vn -0.0016 -0.0010 1.0000
vn -0.0016 -0.0010 -1.0000
vn -0.0004 -0.0003 -1.0000
vn 0.0004 0.0003 -1.0000
vn 0.0016 0.0010 -1.0000
vn 0.0014 0.0012 1.0000
vn -0.0014 -0.0012 1.0000
vn -0.0014 -0.0012 -1.0000
vn 0.0014 0.0012 -1.0000
vn 0.0012 0.0014 1.0000
vn 0.0003 0.0004 1.0000
vn -0.0003 -0.0004 1.0000
vn -0.0012 -0.0014 1.0000
vn -0.0012 -0.0014 -1.0000
vn -0.0003 -0.0004 -1.0000
vn 0.0003 0.0004 -1.0000
vn 0.0012 0.0014 -1.0000
vn 0.0010 0.0016 1.0000
vn -0.0010 -0.0016 1.0000
vn -0.0010 -0.0016 -1.0000
vn 0.0010 0.0016 -1.0000
vn 0.0008 0.0017 1.0000
vn 0.0002 0.0004 1.0000
vn -0.0002 -0.0004 1.0000
vn -0.0008 -0.0017 1.0000
vn -0.0008 -0.0017 -1.0000
vn -0.0002 -0.0004 -1.0000
vn 0.0002 0.0004 -1.0000
vn 0.0008 0.0017 -1.0000
vn 0.0006 0.0018 1.0000
vn 0.0002 0.0005 1.0000
vn -0.0000 0.0001 1.0000
vn -0.0000 -0.0001 1.0000
vn -0.0002 -0.0005 1.0000
vn -0.0006 -0.0018 1.0000
vn -0.0006 -0.0018 -1.0000
vn -0.0002 -0.0005 -1.0000
vn -0.0000 -0.0001 -1.0000
vn -0.0000 0.0001 -1.0000
vn 0.0002 0.0005 -1.0000
vn 0.0006 0.0018 -1.0000
vn 0.0004 0.0018 1.0000
vn 0.0001 0.0005 1.0000
vn -0.0001 -0.0005 1.0000
vn -0.0004 -0.0018 1.0000
vn -0.0004 -0.0018 -1.0000
vn -0.0001 -0.0005 -1.0000
vn 0.0001 0.0005 -1.0000
vn 0.0004 0.0018 -1.0000
vn 0.0001 0.0019 1.0000
vn -0.0000 0.0005 1.0000
vn -0.0000 -0.0005 1.0000
vn -0.0001 -0.0019 1.0000
vn -0.0001 -0.0019 -1.0000
vn -0.0000 -0.0005 -1.0000
vn -0.0000 0.0005 -1.0000
vn 0.0001 0.0019 -1.0000
vn -0.0001 0.0019 1.0000
vn 0.0001 -0.0019 1.0000
vn 0.0001 -0.0019 -1.0000
vn -0.0001 0.0019 -1.0000
vn -0.0004 0.0018 1.0000
vn -0.0001 0.0005 1.0000
vn 0.0001 -0.0005 1.0000
vn 0.0004 -0.0018 1.0000
vn 0.0004 -0.0018 -1.0000
vn 0.0001 -0.0005 -1.0000
vn -0.0001 0.0005 -1.0000
vn -0.0004 0.0018 -1.0000
vn -0.0006 0.0018 1.0000
vn -0.0002 0.0005 1.0000
vn 0.0002 -0.0005 1.0000
vn 0.0006 -0.0018 1.0000
vn 0.0006 -0.0018 -1.0000
vn 0.0002 -0.0005 -1.0000
vn -0.0002 0.0005 -1.0000
vn -0.0006 0.0018 -1.0000
vn -0.0008 0.0017 1.0000
vn -0.0002 0.0004 1.0000
vn -0.0001 0.0001 1.0000
vn 0.0001 -0.0001 1.0000
vn 0.0002 -0.0004 1.0000
vn 0.0008 -0.0017 1.0000
vn 0.0008 -0.0017 -1.0000
vn 0.0002 -0.0004 -1.0000
vn 0.0001 -0.0001 -1.0000
vn -0.0001 0.0001 -1.0000
vn -0.0002 0.0004 -1.0000
vn -0.0008 0.0017 -1.0000
vn -0.0010 0.0016 1.0000
vn -0.0003 0.0004 1.0000
vn 0.0003 -0.0004 1.0000
vn 0.0010 -0.0016 1.0000
vn 0.0010 -0.0016 -1.0000
vn 0.0003 -0.0004 -1.0000
vn -0.0003 0.0004 -1.0000
vn -0.0010 0.0016 -1.0000
vn -0.0012 0.0014 1.0000
vn 0.0012 -0.0014 1.0000
vn 0.0012 -0.0014 -1.0000
vn -0.0012 0.0014 -1.0000
vn -0.0014 0.0012 1.0000
vn -0.0004 0.0003 1.0000
vn 0.0004 -0.0003 1.0000
vn 0.0014 -0.0012 1.0000
vn 0.0014 -0.0012 -1.0000
vn 0.0004 -0.0003 -1.0000
vn -0.0004 0.0003 -1.0000
vn -0.0014 0.0012 -1.0000
vn -0.0016 0.0010 1.0000
vn 0.0016 -0.0010 1.0000
vn 0.0016 -0.0010 -1.0000
vn -0.0016 0.0010 -1.0000
vn -0.0017 0.0008 1.0000
vn -0.0004 0.0002 1.0000
vn 0.0004 -0.0002 1.0000
vn 0.0017 -0.0008 1.0000
vn 0.0017 -0.0008 -1.0000
vn 0.0004 -0.0002 -1.0000
vn -0.0004 0.0002 -1.0000
vn -0.0017 0.0008 -1.0000
vn -0.0018 0.0006 1.0000
vn -0.0005 0.0002 1.0000
vn 0.0005 -0.0002 1.0000
vn 0.0018 -0.0006 1.0000
vn 0.0018 -0.0006 -1.0000
vn 0.0005 -0.0002 -1.0000
vn -0.0005 0.0002 -1.0000
vn -0.0018 0.0006 -1.0000
vn -0.0018 0.0004 1.0000
vn -0.0005 0.0001 1.0000
vn 0.0005 -0.0001 1.0000
vn 0.0018 -0.0004 1.0000
vn 0.0018 -0.0004 -1.0000
vn 0.0005 -0.0001 -1.0000
vn -0.0005 0.0001 -1.0000
vn -0.0018 0.0004 -1.0000
vn -0.0019 0.0001 1.0000
vn 0.0019 -0.0001 1.0000
vn 0.0019 -0.0001 -1.0000
vn -0.0019 0.0001 -1.0000
vt 0.500000 0.500000
vt 0.520833 0.500000
vt 0.520833 0.583333
vt 0.500000 0.583333
vt 0.520833 0.666667
vt 0.500000 0.666667
vt 0.520833 0.750000
vt 0.500000 0.750000
vt 0.520833 0.833333
vt 0.500000 0.833333
vt 0.520833 0.916667
vt 0.500000 0.916667
vt 0.520833 1.000000
vt 0.500000 1.000000
vt 0.500000 0.000000
vt 0.520833 0.000000
vt 0.520833 0.083333
vt 0.500000 0.083333
vt 0.520833 0.166667
vt 0.500000 0.166667
vt 0.520833 0.250000
vt 0.500000 0.250000
vt 0.520833 0.333333
vt 0.500000 0.333333
vt 0.520833 0.416667
vt 0.500000 0.416667
vt 0.541667 0.500000
vt 0.541667 0.583333
vt 0.541667 0.666667
vt 0.541667 0.750000
vt 0.541667 0.833333
vt 0.541667 0.916667
vt 0.541667 1.000000
vt 0.541667 0.000000
vt 0.541667 0.083333
vt 0.541667 0.166667
vt 0.541667 0.250000
vt 0.541667 0.333333
vt 0.541667 0.416667
vt 0.562500 0.500000
vt 0.562500 0.583333
vt 0.562500 0.666667
vt 0.562500 0.750000
vt 0.562500 0.833333
vt 0.562500 0.916667
vt 0.562500 1.000000
vt 0.562500 0.000000
vt 0.562500 0.083333
vt 0.562500 0.166667
vt 0.562500 0.250000
vt 0.562500 0.333333
vt 0.562500 0.416667
vt 0.583333 0.500000
vt 0.583333 0.583333
vt 0.583333 0.666667
vt 0.583333 0.750000
vt 0.583333 0.833333
vt 0.583333 0.916667
vt 0.583333 1.000000
vt 0.583333 0.000000
vt 0.583333 0.083333
vt 0.583333 0.166667
vt 0.583333 0.250000
vt 0.583333 0.333333
vt 0.583333 0.416667
vt 0.604167 0.500000
vt 0.604167 0.583333
vt 0.604167 0.666667
vt 0.604167 0.750000
vt 0.604167 0.833333
vt 0.604167 0.916667
vt 0.604167 1.000000
vt 0.604167 0.000000
vt 0.604167 0.083333
vt 0.604167 0.166667
vt 0.604167 0.250000
vt 0.604167 0.333333
vt 0.604167 0.416667
vt 0.625000 0.500000
vt 0.625000 0.583333
vt 0.625000 0.666667
vt 0.625000 0.750000
vt 0.625000 0.833333
vt 0.625000 0.916667
vt 0.625000 1.000000
vt 0.625000 0.000000
vt 0.625000 0.083333
vt 0.625000 0.166667
vt 0.625000 0.250000
vt 0.625000 0.333333
vt 0.625000 0.416667
vt 0.645833 0.500000
vt 0.645833 0.583333
vt 0.645833 0.666667
vt 0.645833 0.750000
vt 0.645833 0.833333
vt 0.645833 0.916667
vt 0.645833 1.000000
vt 0.645833 0.000000
vt 0.645833 0.083333
vt 0.645833 0.166667
vt 0.645833 0.250000
vt 0.645833 0.333333
vt 0.645833 0.416667
vt 0.666667 0.500000
vt 0.666667 0.583333
vt 0.666667 0.666667
vt 0.666667 0.750000
vt 0.666667 0.833333
vt 0.666667 0.916667
vt 0.666667 1.000000
vt 0.666667 0.000000
vt 0.666667 0.083333
vt 0.666667 0.166667
vt 0.666667 0.250000
vt 0.666667 0.333333
vt 0.666667 0.416667
vt 0.687500 0.500000
vt 0.687500 0.583333
vt 0.687500 0.666667
vt 0.687500 0.750000
vt 0.687500 0.833333
vt 0.687500 0.916667
vt 0.687500 1.000000
vt 0.687500 0.000000
vt 0.687500 0.083333
vt 0.687500 0.166667
vt 0.687500 0.250000
vt 0.687500 0.333333
vt 0.687500 0.416667
vt 0.708333 0.500000
vt 0.708333 0.583333
vt 0.708333 0.666667
vt 0.708333 0.750000
vt 0.708333 0.833333
vt 0.708333 0.916667
vt 0.708333 1.000000
vt 0.708333 0.000000
vt 0.708333 0.083333
vt 0.708333 0.166667
vt 0.708333 0.250000
vt 0.708333 0.333333
vt 0.708333 0.416667
vt 0.729167 0.500000
vt 0.729167 0.583333
vt 0.729167 0.666667
vt 0.729167 0.750000
vt 0.729167 0.833333
vt 0.729167 0.916667
vt 0.729167 1.000000
vt 0.729167 0.000000
vt 0.729167 0.083333
vt 0.729167 0.166667
vt 0.729167 0.250000
vt 0.729167 0.333333
vt 0.729167 0.416667
vt 0.750000 0.500000
vt 0.750000 0.583333
vt 0.750000 0.666667
vt 0.750000 0.750000
vt 0.750000 0.833333
vt 0.750000 0.916667
vt 0.750000 1.000000
vt 0.750000 0.000000
vt 0.750000 0.083333
vt 0.750000 0.166667
vt 0.750000 0.250000
vt 0.750000 0.333333
vt 0.750000 0.416667
vt 0.770833 0.500000
vt 0.770833 0.583333
vt 0.770833 0.666667
vt 0.770833 0.750000
vt 0.770833 0.833333
vt 0.770833 0.916667
vt 0.770833 1.000000
vt 0.770833 0.000000
vt 0.770833 0.083333
vt 0.770833 0.166667
vt 0.770833 0.250000
vt 0.770833 0.333333
vt 0.770833 0.416667
vt 0.791667 0.500000
vt 0.791667 0.583333
vt 0.791667 0.666667
vt 0.791667 0.750000
vt 0.791667 0.833333
vt 0.791667 0.916667
vt 0.791667 1.000000
vt 0.791667 0.000000
vt 0.791667 0.083333
vt 0.791667 0.166667
vt 0.791667 0.250000
vt 0.791667 0.333333
vt 0.791667 0.416667
vt 0.812500 0.500000
vt 0.812500 0.583333
vt 0.812500 0.666667
vt 0.812500 0.750000
vt 0.812500 0.833333
vt 0.812500 0.916667
vt 0.812500 1.000000
vt 0.812500 0.000000
vt 0.812500 0.083333
vt 0.812500 0.166667
vt 0.812500 0.250000
vt 0.812500 0.333333
vt 0.812500 0.416667
vt 0.833333 0.500000
vt 0.833333 0.583333
vt 0.833333 0.666667
vt 0.833333 0.750000
vt 0.833333 0.833333
vt 0.833333 0.916667
vt 0.833333 1.000000
vt 0.833333 0.000000
vt 0.833333 0.083333
vt 0.833333 0.166667
vt 0.833333 0.250000
vt 0.833333 0.333333
vt 0.833333 0.416667
vt 0.854167 0.500000
vt 0.854167 0.583333
vt 0.854167 0.666667
vt 0.854167 0.750000
vt 0.854167 0.833333
vt 0.854167 0.916667
vt 0.854167 1.000000
vt 0.854167 0.000000
vt 0.854167 0.083333
vt 0.854167 0.166667
vt 0.854167 0.250000
vt 0.854167 0.333333
vt 0.854167 0.416667
vt 0.875000 0.500000
vt 0.875000 0.583333
vt 0.875000 0.666667
vt 0.875000 0.750000
vt 0.875000 0.833333
vt 0.875000 0.916667
vt 0.875000 1.000000
vt 0.875000 0.000000
vt 0.875000 0.083333
vt 0.875000 0.166667
vt 0.875000 0.250000
vt 0.875000 0.333333
vt 0.875000 0.416667
vt 0.895833 0.500000
vt 0.895833 0.583333
vt 0.895833 0.666667
vt 0.895833 0.750000
vt 0.895833 0.833333
vt 0.895833 0.916667
vt 0.895833 1.000000
vt 0.895833 0.000000
vt 0.895833 0.083333
vt 0.895833 0.166667
vt 0.895833 0.250000
vt 0.895833 0.333333
vt 0.895833 0.416667
vt 0.916667 0.500000
vt 0.916667 0.583333
vt 0.916667 0.666667
vt 0.916667 0.750000
vt 0.916667 0.833333
vt 0.916667 0.916667
vt 0.916667 1.000000
vt 0.916667 0.000000
vt 0.916667 0.083333
vt 0.916667 0.166667
vt 0.916667 0.250000
vt 0.916667 0.333333
vt 0.916667 0.416667
vt 0.937500 0.500000
vt 0.937500 0.583333
vt 0.937500 0.666667
vt 0.937500 0.750000
vt 0.937500 0.833333
vt 0.937500 0.916667
vt 0.937500 1.000000
vt 0.937500 0.000000
vt 0.937500 0.083333
vt 0.937500 0.166667
vt 0.937500 0.250000
vt 0.937500 0.333333
vt 0.937500 0.416667
vt 0.958333 0.500000
vt 0.958333 0.583333
vt 0.958333 0.666667
vt 0.958333 0.750000
vt 0.958333 0.833333
vt 0.958333 0.916667
vt 0.958333 1.000000
vt 0.958333 0.000000
vt 0.958333 0.083333
vt 0.958333 0.166667
vt 0.958333 0.250000
vt 0.958333 0.333333
vt 0.958333 0.416667
vt 0.979167 0.500000
vt 0.979167 0.583333
vt 0.979167 0.666667
vt 0.979167 0.750000
vt 0.979167 0.833333
vt 0.979167 0.916667
vt 0.979167 1.000000
vt 0.979167 0.000000
vt 0.979167 0.083333
vt 0.979167 0.166667
vt 0.979167 0.250000
vt 0.979167 0.333333
vt 0.979167 0.416667
vt 1.000000 0.500000
vt 1.000000 0.583333
vt 1.000000 0.666667
vt 1.000000 0.750000
vt 1.000000 0.833333
vt 1.000000 0.916667
vt 1.000000 1.000000
vt 1.000000 0.000000
vt 1.000000 0.083333
vt 1.000000 0.166667
vt 1.000000 0.250000
vt 1.000000 0.333333
vt 1.000000 0.416667
vt 0.000000 0.500000
vt 0.020833 0.500000
vt 0.020833 0.583333
vt 0.000000 0.583333
vt 0.020833 0.666667
vt 0.000000 0.666667
vt 0.020833 0.750000
vt 0.000000 0.750000
vt 0.020833 0.833333
vt 0.000000 0.833333
vt 0.020833 0.916667
vt 0.000000 0.916667
vt 0.020833 1.000000
vt 0.000000 1.000000
vt 0.000000 0.000000
vt 0.020833 0.000000
vt 0.020833 0.083333
vt 0.000000 0.083333
vt 0.020833 0.166667
vt 0.000000 0.166667
vt 0.020833 0.250000
vt 0.000000 0.250000
vt 0.020833 0.333333
vt 0.000000 0.333333
vt 0.020833 0.416667
vt 0.000000 0.416667
vt 0.041667 0.500000
vt 0.041667 0.583333
vt 0.041667 0.666667
vt 0.041667 0.750000
vt 0.041667 0.833333
vt 0.041667 0.916667
vt 0.041667 1.000000
vt 0.041667 0.000000
vt 0.041667 0.083333
vt 0.041667 0.166667
vt 0.041667 0.250000
vt 0.041667 0.333333
vt 0.041667 0.416667
vt 0.062500 0.500000
vt 0.062500 0.583333
vt 0.062500 0.666667
vt 0.062500 0.750000
vt 0.062500 0.833333
vt 0.062500 0.916667
vt 0.062500 1.000000
vt 0.062500 0.000000
vt 0.062500 0.083333
vt 0.062500 0.166667
vt 0.062500 0.250000
vt 0.062500 0.333333
vt 0.062500 0.416667
vt 0.083333 0.500000
vt 0.083333 0.583333
vt 0.083333 0.666667
vt 0.083333 0.750000
vt 0.083333 0.833333
vt 0.083333 0.916667
vt 0.083333 1.000000
vt 0.083333 0.000000
vt 0.083333 0.083333
vt 0.083333 0.166667
vt 0.083333 0.250000
vt 0.083333 0.333333
vt 0.083333 0.416667
vt 0.104167 0.500000
vt 0.104167 0.583333
vt 0.104167 0.666667
vt 0.104167 0.750000
vt 0.104167 0.833333
vt 0.104167 0.916667
vt 0.104167 1.000000
vt 0.104167 0.000000
vt 0.104167 0.083333
vt 0.104167 0.166667
vt 0.104167 0.250000
vt 0.104167 0.333333
vt 0.104167 0.416667
vt 0.125000 0.500000
vt 0.125000 0.583333
vt 0.125000 0.666667
vt 0.125000 0.750000
vt 0.125000 0.833333
vt 0.125000 0.916667
vt 0.125000 1.000000
vt 0.125000 0.000000
vt 0.125000 0.083333
vt 0.125000 0.166667
vt 0.125000 0.250000
vt 0.125000 0.333333
vt 0.125000 0.416667
vt 0.145833 0.500000
vt 0.145833 0.583333
vt 0.145833 0.666667
vt 0.145833 0.750000
vt 0.145833 0.833333
vt 0.145833 0.916667
vt 0.145833 1.000000
vt 0.145833 0.000000
vt 0.145833 0.083333
vt 0.145833 0.166667
vt 0.145833 0.250000
vt 0.145833 0.333333
vt 0.145833 0.416667
vt 0.166667 0.500000
vt 0.166667 0.583333
vt 0.166667 0.666667
vt 0.166667 0.750000
vt 0.166667 0.833333
vt 0.166667 0.916667
vt 0.166667 1.000000
vt 0.166667 0.000000
vt 0.166667 0.083333
vt 0.166667 0.166667
vt 0.166667 0.250000
vt 0.166667 0.333333
vt 0.166667 0.416667
vt 0.187500 0.500000
vt 0.187500 0.583333
vt 0.187500 0.666667
vt 0.187500 0.750000
vt 0.187500 0.833333
vt 0.187500 0.916667
vt 0.187500 1.000000
vt 0.187500 0.000000
vt 0.187500 0.083333
vt 0.187500 0.166667
vt 0.187500 0.250000
vt 0.187500 0.333333
vt 0.187500 0.416667
vt 0.208333 0.500000
vt 0.208333 0.583333
vt 0.208333 0.666667
vt 0.208333 0.750000
vt 0.208333 0.833333
vt 0.208333 0.916667
vt 0.208333 1.000000
vt 0.208333 0.000000
vt 0.208333 0.083333
vt 0.208333 0.166667
vt 0.208333 0.250000
vt 0.208333 0.333333
vt 0.208333 0.416667
vt 0.229167 0.500000
vt 0.229167 0.583333
vt 0.229167 0.666667
vt 0.229167 0.750000
vt 0.229167 0.833333
vt 0.229167 0.916667
vt 0.229167 1.000000
vt 0.229167 0.000000
vt 0.229167 0.083333
vt 0.229167 0.166667
vt 0.229167 0.250000
vt 0.229167 0.333333
vt 0.229167 0.416667
vt 0.250000 0.500000
vt 0.250000 0.583333
vt 0.250000 0.666667
vt 0.250000 0.750000
vt 0.250000 0.833333
vt 0.250000 0.916667
vt 0.250000 1.000000
vt 0.250000 0.000000
vt 0.250000 0.083333
vt 0.250000 0.166667
vt 0.250000 0.250000
vt 0.250000 0.333333
vt 0.250000 0.416667
vt 0.270833 0.500000
vt 0.270833 0.583333
vt 0.270833 0.666667
vt 0.270833 0.750000
vt 0.270833 0.833333
vt 0.270833 0.916667
vt 0.270833 1.000000
vt 0.270833 0.000000
vt 0.270833 0.083333
vt 0.270833 0.166667
vt 0.270833 0.250000
vt 0.270833 0.333333
vt 0.270833 0.416667
vt 0.291667 0.500000
vt 0.291667 0.583333
vt 0.291667 0.666667
vt 0.291667 0.750000
vt 0.291667 0.833333
vt 0.291667 0.916667
vt 0.291667 1.000000
vt 0.291667 0.000000
vt 0.291667 0.083333
vt 0.291667 0.166667
vt 0.291667 0.250000
vt 0.291667 0.333333
vt 0.291667 0.416667
vt 0.312500 0.500000
vt 0.312500 0.583333
vt 0.312500 0.666667
vt 0.312500 0.750000
vt 0.312500 0.833333
vt 0.312500 0.916667
vt 0.312500 1.000000
vt 0.312500 0.000000
vt 0.312500 0.083333
vt 0.312500 0.166667
vt 0.312500 0.250000
vt 0.312500 0.333333
vt 0.312500 0.416667
vt 0.333333 0.500000
vt 0.333333 0.583333
vt 0.333333 0.666667
vt 0.333333 0.750000
vt 0.333333 0.833333
vt 0.333333 0.916667
vt 0.333333 1.000000
vt 0.333333 0.000000
vt 0.333333 0.083333
vt 0.333333 0.166667
vt 0.333333 0.250000
vt 0.333333 0.333333
vt 0.333333 0.416667
vt 0.354167 0.500000
vt 0.354167 0.583333
vt 0.354167 0.666667
vt 0.354167 0.750000
vt 0.354167 0.833333
vt 0.354167 0.916667
vt 0.354167 1.000000
vt 0.354167 0.000000
vt 0.354167 0.083333
vt 0.354167 0.166667
vt 0.354167 0.250000
vt 0.354167 0.333333
vt 0.354167 0.416667
vt 0.375000 0.500000
vt 0.375000 0.583333
vt 0.375000 0.666667
vt 0.375000 0.750000
vt 0.375000 0.833333
vt 0.375000 0.916667
vt 0.375000 1.000000
vt 0.375000 0.000000
vt 0.375000 0.083333
vt 0.375000 0.166667
vt 0.375000 0.250000
vt 0.375000 0.333333
vt 0.375000 0.416667
vt 0.395833 0.500000
vt 0.395833 0.583333
vt 0.395833 0.666667
vt 0.395833 0.750000
vt 0.395833 0.833333
vt 0.395833 0.916667
vt 0.395833 1.000000
vt 0.395833 0.000000
vt 0.395833 0.083333
vt 0.395833 0.166667
vt 0.395833 0.250000
vt 0.395833 0.333333
vt 0.395833 0.416667
vt 0.416667 0.500000
vt 0.416667 0.583333
vt 0.416667 0.666667
vt 0.416667 0.750000
vt 0.416667 0.833333
vt 0.416667 0.916667
vt 0.416667 1.000000
vt 0.416667 0.000000
vt 0.416667 0.083333
vt 0.416667 0.166667
vt 0.416667 0.250000
vt 0.416667 0.333333
vt 0.416667 0.416667
vt 0.437500 0.500000
vt 0.437500 0.583333
vt 0.437500 0.666667
vt 0.437500 0.750000
vt 0.437500 0.833333
vt 0.437500 0.916667
vt 0.437500 1.000000
vt 0.437500 0.000000
vt 0.437500 0.083333
vt 0.437500 0.166667
vt 0.437500 0.250000
vt 0.437500 0.333333
vt 0.437500 0.416667
vt 0.458333 0.500000
vt 0.458333 0.583333
vt 0.458333 0.666667
vt 0.458333 0.750000
vt 0.458333 0.833333
vt 0.458333 0.916667
vt 0.458333 1.000000
vt 0.458333 0.000000
vt 0.458333 0.083333
vt 0.458333 0.166667
vt 0.458333 0.250000
vt 0.458333 0.333333
vt 0.458333 0.416667
vt 0.479167 0.500000
vt 0.479167 0.583333
vt 0.479167 0.666667
vt 0.479167 0.750000
vt 0.479167 0.833333
vt 0.479167 0.916667
vt 0.479167 1.000000
vt 0.479167 0.000000
vt 0.479167 0.083333
vt 0.479167 0.166667
vt 0.479167 0.250000
vt 0.479167 0.333333
vt 0.479167 0.416667
s 0
f 1/1/1 13/2/1 14/3/1 2/4/1
f 2/4/2 14/3/2 15/5/2 3/6/2
f 3/6/3 15/5/3 16/7/3 4/8/3
f 4/8/4 16/7/4 17/9/4 5/10/4
f 5/10/5 17/9/5 18/11/5 6/12/5
f 6/12/6 18/11/6 19/13/6 7/14/6
f 7/15/7 19/16/7 20/17/7 8/18/7
f 8/18/8 20/17/8 21/19/8 9/20/8
f 9/20/9 21/19/9 22/21/9 10/22/9
f 10/22/10 22/21/10 23/23/10 11/24/10
f 11/24/11 23/23/11 24/25/11 12/26/11
f 12/26/12 24/25/12 13/2/12 1/1/12
f 13/2/13 25/27/13 26/28/13 14/3/13
f 14/3/14 26/28/14 27/29/14 15/5/14
f 15/5/3 27/29/3 28/30/3 16/7/3
f 16/7/4 28/30/4 29/31/4 17/9/4
f 17/9/15 29/31/15 30/32/15 18/11/15
f 18/11/16 30/32/16 31/33/16 19/13/16
f 19/16/17 31/34/17 32/35/17 20/17/17
f 20/17/18 32/35/18 33/36/18 21/19/18
f 21/19/9 33/36/9 34/37/9 22/21/9
f 22/21/10 34/37/10 35/38/10 23/23/10
f 23/23/19 35/38/19 36/39/19 24/25/19
f 24/25/20 36/39/20 25/27/20 13/2/20
f 25/27/21 37/40/21 38/41/21 26/28/21
f 26/28/22 38/41/22 39/42/22 27/29/22
f 27/29/3 39/42/3 40/43/3 28/30/3
f 28/30/4 40/43/4 41/44/4 29/31/4
f 29/31/23 41/44/23 42/45/23 30/32/23
f 30/32/24 42/45/24 43/46/24 31/33/24
f 31/34/25 43/47/25 44/48/25 32/35/25
f 32/35/26 44/48/26 45/49/26 33/36/26
f 33/36/9 45/49/9 46/50/9 34/37/9
f 34/37/10 46/50/10 47/51/10 35/38/10
f 35/38/27 47/51/27 48/52/27 36/39/27
f 36/39/28 48/52/28 37/40/28 25/27/28
f 37/40/29 49/53/29 50/54/29 38/41/29
f 38/41/30 50/54/30 51/55/30 39/42/30
f 39/42/31 51/55/31 52/56/31 40/43/31
f 40/43/32 52/56/32 53/57/32 41/44/32
f 41/44/33 53/57/33 54/58/33 42/45/33
f 42/45/34 54/58/34 55/59/34 43/46/34
f 43/47/35 55/60/35 56/61/35 44/48/35
f 44/48/36 56/61/36 57/62/36 45/49/36
f 45/49/37 57/62/37 58/63/37 46/50/37
f 46/50/38 58/63/38 59/64/38 47/51/38
f 47/51/39 59/64/39 60/65/39 48/52/39
f 48/52/40 60/65/40 49/53/40 37/40/40
f 49/53/41 61/66/41 62/67/41 50/54/41
f 50/54/42 62/67/42 63/68/42 51/55/42
f 51/55/31 63/68/31 64/69/31 52/56/31
f 52/56/32 64/69/32 65/70/32 53/57/32
f 53/57/43 65/70/43 66/71/43 54/58/43
f 54/58/44 66/71/44 67/72/44 55/59/44
f 55/60/45 67/73/45 68/74/45 56/61/45
f 56/61/46 68/74/46 69/75/46 57/62/46
f 57/62/37 69/75/37 70/76/37 58/63/37
f 58/63/38 70/76/38 71/77/38 59/64/38
f 59/64/47 71/77/47 72/78/47 60/65/47
f 60/65/48 72/78/48 61/66/48 49/53/48
f 61/66/49 73/79/49 74/80/49 62/67/49
f 62/67/42 74/80/42 75/81/42 63/68/42
f 63/68/31 75/81/31 76/82/31 64/69/31
f 64/69/32 76/82/32 77/83/32 65/70/32
f 65/70/43 77/83/43 78/84/43 66/71/43
f 66/71/50 78/84/50 79/85/50 67/72/50
f 67/73/51 79/86/51 80/87/51 68/74/51
f 68/74/46 80/87/46 81/88/46 69/75/46
f 69/75/37 81/88/37 82/89/37 70/76/37
f 70/76/38 82/89/38 83/90/38 71/77/38
f 71/77/47 83/90/47 84/91/47 72/78/47
f 72/78/52 84/91/52 73/79/52 61/66/52
f 73/79/53 85/92/53 86/93/53 74/80/53
f 74/80/54 86/93/54 87/94/54 75/81/54
f 75/81/31 87/94/31 88/95/31 76/82/31
f 76/82/32 88/95/32 89/96/32 77/83/32
f 77/83/55 89/96/55 90/97/55 78/84/55
f 78/84/56 90/97/56 91/98/56 79/85/56
f 79/86/57 91/99/57 92/100/57 80/87/57
f 80/87/58 92/100/58 93/101/58 81/88/58
f 81/88/37 93/101/37 94/102/37 82/89/37
f 82/89/38 94/102/38 95/103/38 83/90/38
f 83/90/59 95/103/59 96/104/59 84/91/59
f 84/91/60 96/104/60 85/92/60 73/79/60
f 85/92/61 97/105/61 98/106/61 86/93/61
f 86/93/54 98/106/54 99/107/54 87/94/54
f 87/94/31 99/107/31 100/108/31 88/95/31
f 88/95/32 100/108/32 101/109/32 89/96/32
f 89/96/55 101/109/55 102/110/55 90/97/55
f 90/97/62 102/110/62 103/111/62 91/98/62
f 91/99/63 103/112/63 104/113/63 92/100/63
f 92/100/58 104/113/58 105/114/58 93/101/58
f 93/101/37 105/114/37 106/115/37 94/102/37
f 94/102/38 106/115/38 107/116/38 95/103/38
f 95/103/59 107/116/59 108/117/59 96/104/59
f 96/104/64 108/117/64 97/105/64 85/92/64
f 97/105/65 109/118/65 110/119/65 98/106/65
f 98/106/66 110/119/66 111/120/66 99/107/66
f 99/107/31 111/120/31 112/121/31 100/108/31
f 100/108/32 112/121/32 113/122/32 101/109/32
f 101/109/67 113/122/67 114/123/67 102/110/67
f 102/110/68 114/123/68 115/124/68 103/111/68
f 103/112/69 115/125/69 116/126/69 104/113/69
f 104/113/70 116/126/70 117/127/70 105/114/70
f 105/114/37 117/127/37 118/128/37 106/115/37
f 106/115/38 118/128/38 119/129/38 107/116/38
f 107/116/71 119/129/71 120/130/71 108/117/71
f 108/117/72 120/130/72 109/118/72 97/105/72
f 109/118/73 121/131/73 122/132/73 110/119/73
f 110/119/74 122/132/74 123/133/74 111/120/74
f 111/120/75 123/133/75 124/134/75 112/121/75
f 112/121/76 124/134/76 125/135/76 113/122/76
f 113/122/77 125/135/77 126/136/77 114/123/77
f 114/123/78 126/136/78 127/137/78 115/124/78
f 115/125/79 127/138/79 128/139/79 116/126/79
f 116/126/80 128/139/80 129/140/80 117/127/80
f 117/127/81 129/140/81 130/141/81 118/128/81
f 118/128/82 130/141/82 131/142/82 119/129/82
f 119/129/83 131/142/83 132/143/83 120/130/83
f 120/130/84 132/143/84 121/131/84 109/118/84
f 121/131/85 133/144/85 134/145/85 122/132/85
f 122/132/86 134/145/86 135/146/86 123/133/86
f 123/133/75 135/146/75 136/147/75 124/134/75
f 124/134/76 136/147/76 137/148/76 125/135/76
f 125/135/87 137/148/87 138/149/87 126/136/87
f 126/136/88 138/149/88 139/150/88 127/137/88
f 127/138/89 139/151/89 140/152/89 128/139/89
f 128/139/90 140/152/90 141/153/90 129/140/90
f 129/140/81 141/153/81 142/154/81 130/141/81
f 130/141/82 142/154/82 143/155/82 131/142/82
f 131/142/91 143/155/91 144/156/91 132/143/91
f 132/143/92 144/156/92 133/144/92 121/131/92
f 133/144/93 145/157/93 146/158/93 134/145/93
f 134/145/94 146/158/94 147/159/94 135/146/94
f 135/146/75 147/159/75 148/160/75 136/147/75
f 136/147/76 148/160/76 149/161/76 137/148/76
f 137/148/95 149/161/95 150/162/95 138/149/95
f 138/149/96 150/162/96 151/163/96 139/150/96
f 139/151/97 151/164/97 152/165/97 140/152/97
f 140/152/98 152/165/98 153/166/98 141/153/98
f 141/153/81 153/166/81 154/167/81 142/154/81
f 142/154/82 154/167/82 155/168/82 143/155/82
f 143/155/99 155/168/99 156/169/99 144/156/99
f 144/156/100 156/169/100 145/157/100 133/144/100
f 145/157/101 157/170/101 158/171/101 146/158/101
f 146/158/94 158/171/94 159/172/94 147/159/94
f 147/159/75 159/172/75 160/173/75 148/160/75
f 148/160/76 160/173/76 161/174/76 149/161/76
f 149/161/95 161/174/95 162/175/95 150/162/95
f 150/162/102 162/175/102 163/176/102 151/163/102
f 151/164/103 163/177/103 164/178/103 152/165/103
f 152/165/98 164/178/98 165/179/98 153/166/98
f 153/166/81 165/179/81 166/180/81 154/167/81
f 154/167/82 166/180/82 167/181/82 155/168/82
f 155/168/99 167/181/99 168/182/99 156/169/99
f 156/169/104 168/182/104 157/170/104 145/157/104
f 157/170/105 169/183/105 170/184/105 158/171/105
f 158/171/106 170/184/106 171/185/106 159/172/106
f 159/172/75 171/185/75 172/186/75 160/173/75
f 160/173/76 172/186/76 173/187/76 161/174/76
f 161/174/107 173/187/107 174/188/107 162/175/107
f 162/175/108 174/188/108 175/189/108 163/176/108
f 163/177/109 175/190/109 176/191/109 164/178/109
f 164/178/110 176/191/110 177/192/110 165/179/110
f 165/179/81 177/192/81 178/193/81 166/180/81
f 166/180/82 178/193/82 179/194/82 167/181/82
f 167/181/111 179/194/111 180/195/111 168/182/111
f 168/182/112 180/195/112 169/183/112 157/170/112
f 169/183/113 181/196/113 182/197/113 170/184/113
f 170/184/114 182/197/114 183/198/114 171/185/114
f 171/185/75 183/198/75 184/199/75 172/186/75
f 172/186/76 184/199/76 185/200/76 173/187/76
f 173/187/115 185/200/115 186/201/115 174/188/115
f 174/188/116 186/201/116 187/202/116 175/189/116
f 175/190/117 187/203/117 188/204/117 176/191/117
f 176/191/118 188/204/118 189/205/118 177/192/118
f 177/192/81 189/205/81 190/206/81 178/193/81
f 178/193/82 190/206/82 191/207/82 179/194/82
f 179/194/119 191/207/119 192/208/119 180/195/119
f 180/195/120 192/208/120 181/196/120 169/183/120
f 181/196/121 193/209/121 194/210/121 182/197/121
f 182/197/122 194/210/122 195/211/122 183/198/122
f 183/198/123 195/211/123 196/212/123 184/199/123
f 184/199/124 196/212/124 197/213/124 185/200/124
f 185/200/125 197/213/125 198/214/125 186/201/125
f 186/201/126 198/214/126 199/215/126 187/202/126
f 187/203/127 199/216/127 200/217/127 188/204/127
f 188/204/128 200/217/128 201/218/128 189/205/128
f 189/205/129 201/218/129 202/219/129 190/206/129
f 190/206/130 202/219/130 203/220/130 191/207/130
f 191/207/131 203/220/131 204/221/131 192/208/131
f 192/208/132 204/221/132 193/209/132 181/196/132
f 193/209/133 205/222/133 206/223/133 194/210/133
f 194/210/134 206/223/134 207/224/134 195/211/134
f 195/211/123 207/224/123 208/225/123 196/212/123
f 196/212/124 208/225/124 209/226/124 197/213/124
f 197/213/135 209/226/135 210/227/135 198/214/135
f 198/214/136 210/227/136 211/228/136 199/215/136
f 199/216/137 211/229/137 212/230/137 200/217/137
f 200/217/138 212/230/138 213/231/138 201/218/138
f 201/218/129 213/231/129 214/232/129 202/219/129
f 202/219/130 214/232/130 215/233/130 203/220/130
f 203/220/139 215/233/139 216/234/139 204/221/139
f 204/221/140 216/234/140 205/222/140 193/209/140
f 205/222/141 217/235/141 218/236/141 206/223/141
f 206/223/134 218/236/134 219/237/134 207/224/134
f 207/224/123 219/237/123 220/238/123 208/225/123
f 208/225/124 220/238/124 221/239/124 209/226/124
f 209/226/135 221/239/135 222/240/135 210/227/135
f 210/227/142 222/240/142 223/241/142 211/228/142
f 211/229/143 223/242/143 224/243/143 212/230/143
f 212/230/138 224/243/138 225/244/138 213/231/138
f 213/231/129 225/244/129 226/245/129 214/232/129
f 214/232/130 226/245/130 227/246/130 215/233/130
f 215/233/139 227/246/139 228/247/139 216/234/139
f 216/234/144 228/247/144 217/235/144 205/222/144
f 217/235/145 229/248/145 230/249/145 218/236/145
f 218/236/146 230/249/146 231/250/146 219/237/146
f 219/237/123 231/250/123 232/251/123 220/238/123
f 220/238/124 232/251/124 233/252/124 221/239/124
f 221/239/147 233/252/147 234/253/147 222/240/147
f 222/240/148 234/253/148 235/254/148 223/241/148
f 223/242/149 235/255/149 236/256/149 224/243/149
f 224/243/150 236/256/150 237/257/150 225/244/150
f 225/244/129 237/257/129 238/258/129 226/245/129
f 226/245/130 238/258/130 239/259/130 227/246/130
f 227/246/151 239/259/151 240/260/151 228/247/151
f 228/247/152 240/260/152 229/248/152 217/235/152
f 229/248/153 241/261/153 242/262/153 230/249/153
f 230/249/146 242/262/146 243/263/146 231/250/146
f 231/250/123 243/263/123 244/264/123 232/251/123
f 232/251/124 244/264/124 245/265/124 233/252/124
f 233/252/147 245/265/147 246/266/147 234/253/147
f 234/253/154 246/266/154 247/267/154 235/254/154
f 235/255/155 247/268/155 248/269/155 236/256/155
f 236/256/150 248/269/150 249/270/150 237/257/150
f 237/257/129 249/270/129 250/271/129 238/258/129
f 238/258/130 250/271/130 251/272/130 239/259/130
f 239/259/151 251/272/151 252/273/151 240/260/151
f 240/260/156 252/273/156 241/261/156 229/248/156
f 241/261/157 253/274/157 254/275/157 242/262/157
f 242/262/158 254/275/158 255/276/158 243/263/158
f 243/263/123 255/276/123 256/277/123 244/264/123
f 244/264/124 256/277/124 257/278/124 245/265/124
f 245/265/159 257/278/159 258/279/159 246/266/159
f 246/266/160 258/279/160 259/280/160 247/267/160
f 247/268/161 259/281/161 260/282/161 248/269/161
f 248/269/162 260/282/162 261/283/162 249/270/162
f 249/270/129 261/283/129 262/284/129 250/271/129
f 250/271/130 262/284/130 263/285/130 251/272/130
f 251/272/163 263/285/163 264/286/163 252/273/163
f 252/273/164 264/286/164 253/274/164 241/261/164
f 253/274/165 265/287/165 266/288/165 254/275/165
f 254/275/166 266/288/166 267/289/166 255/276/166
f 255/276/4 267/289/4 268/290/4 256/277/4
f 256/277/3 268/290/3 269/291/3 257/278/3
f 257/278/167 269/291/167 270/292/167 258/279/167
f 258/279/168 270/292/168 271/293/168 259/280/168
f 259/281/169 271/294/169 272/295/169 260/282/169
f 260/282/170 272/295/170 273/296/170 261/283/170
f 261/283/10 273/296/10 274/297/10 262/284/10
f 262/284/9 274/297/9 275/298/9 263/285/9
f 263/285/171 275/298/171 276/299/171 264/286/171
f 264/286/172 276/299/172 265/287/172 253/274/172
f 265/287/173 277/300/173 278/301/173 266/288/173
f 266/288/174 278/301/174 279/302/174 267/289/174
f 267/289/4 279/302/4 280/303/4 268/290/4
f 268/290/3 280/303/3 281/304/3 269/291/3
f 269/291/175 281/304/175 282/305/175 270/292/175
f 270/292/176 282/305/176 283/306/176 271/293/176
f 271/294/177 283/307/177 284/308/177 272/295/177
f 272/295/178 284/308/178 285/309/178 273/296/178
f 273/296/10 285/309/10 286/310/10 274/297/10
f 274/297/9 286/310/9 287/311/9 275/298/9
f 275/298/179 287/311/179 288/312/179 276/299/179
f 276/299/180 288/312/180 277/300/180 265/287/180
f 277/300/181 289/313/181 290/314/181 278/301/181
f 278/301/5 290/314/5 291/315/5 279/302/5
f 279/302/4 291/315/4 292/316/4 280/303/4
f 280/303/3 292/316/3 293/317/3 281/304/3
f 281/304/2 293/317/2 294/318/2 282/305/2
f 282/305/182 294/318/182 295/319/182 283/306/182
f 283/307/183 295/320/183 296/321/183 284/308/183
f 284/308/11 296/321/11 297/322/11 285/309/11
f 285/309/10 297/322/10 298/323/10 286/310/10
f 286/310/9 298/323/9 299/324/9 287/311/9
f 287/311/8 299/324/8 300/325/8 288/312/8
f 288/312/184 300/325/184 289/313/184 277/300/184
f 289/326/6 301/327/6 302/328/6 290/329/6
f 290/329/5 302/328/5 303/330/5 291/331/5
f 291/331/4 303/330/4 304/332/4 292/333/4
f 292/333/3 304/332/3 305/334/3 293/335/3
f 293/335/2 305/334/2 306/336/2 294/337/2
f 294/337/1 306/336/1 307/338/1 295/339/1
f 295/340/12 307/341/12 308/342/12 296/343/12
f 296/343/11 308/342/11 309/344/11 297/345/11
f 297/345/10 309/344/10 310/346/10 298/347/10
f 298/347/9 310/346/9 311/348/9 299/349/9
f 299/349/8 311/348/8 312/350/8 300/351/8
f 300/351/7 312/350/7 301/327/7 289/326/7
f 301/327/16 313/352/16 314/353/16 302/328/16
f 302/328/15 314/353/15 315/354/15 303/330/15
f 303/330/4 315/354/4 316/355/4 304/332/4
f 304/332/3 316/355/3 317/356/3 305/334/3
f 305/334/14 317/356/14 318/357/14 306/336/14
f 306/336/13 318/357/13 319/358/13 307/338/13
f 307/341/20 319/359/20 320/360/20 308/342/20
f 308/342/19 320/360/19 321/361/19 309/344/19
f 309/344/10 321/361/10 322/362/10 310/346/10
f 310/346/9 322/362/9 323/363/9 311/348/9
f 311/348/18 323/363/18 324/364/18 312/350/18
f 312/350/17 324/364/17 313/352/17 301/327/17
f 313/352/24 325/365/24 326/366/24 314/353/24
f 314/353/23 326/366/23 327/367/23 315/354/23
f 315/354/4 327/367/4 328/368/4 316/355/4
f 316/355/3 328/368/3 329/369/3 317/356/3
f 317/356/22 329/369/22 330/370/22 318/357/22
f 318/357/21 330/370/21 331/371/21 319/358/21
f 319/359/28 331/372/28 332/373/28 320/360/28
f 320/360/27 332/373/27 333/374/27 321/361/27
f 321/361/10 333/374/10 334/375/10 322/362/10
f 322/362/9 334/375/9 335/376/9 323/363/9
f 323/363/26 335/376/26 336/377/26 324/364/26
f 324/364/25 336/377/25 325/365/25 313/352/25
f 325/365/34 337/378/34 338/379/34 326/366/34
f 326/366/33 338/379/33 339/380/33 327/367/33
f 327/367/32 339/380/32 340/381/32 328/368/32
f 328/368/31 340/381/31 341/382/31 329/369/31
f 329/369/30 341/382/30 342/383/30 330/370/30
f 330/370/29 342/383/29 343/384/29 331/371/29
f 331/372/40 343/385/40 344/386/40 332/373/40
f 332/373/39 344/386/39 345/387/39 333/374/39
f 333/374/38 345/387/38 346/388/38 334/375/38
f 334/375/37 346/388/37 347/389/37 335/376/37
f 335/376/36 347/389/36 348/390/36 336/377/36
f 336/377/35 348/390/35 337/378/35 325/365/35
f 337/378/44 349/391/44 350/392/44 338/379/44
f 338/379/43 350/392/43 351/393/43 339/380/43
f 339/380/32 351/393/32 352/394/32 340/381/32
f 340/381/31 352/394/31 353/395/31 341/382/31
f 341/382/42 353/395/42 354/396/42 342/383/42
f 342/383/41 354/396/41 355/397/41 343/384/41
f 343/385/48 355/398/48 356/399/48 344/386/48
f 344/386/47 356/399/47 357/400/47 345/387/47
f 345/387/38 357/400/38 358/401/38 346/388/38
f 346/388/37 358/401/37 359/402/37 347/389/37
f 347/389/46 359/402/46 360/403/46 348/390/46
f 348/390/45 360/403/45 349/391/45 337/378/45
f 349/391/50 361/404/50 362/405/50 350/392/50
f 350/392/43 362/405/43 363/406/43 351/393/43
f 351/393/32 363/406/32 364/407/32 352/394/32
f 352/394/31 364/407/31 365/408/31 353/395/31
f 353/395/42 365/408/42 366/409/42 354/396/42
f 354/396/49 366/409/49 367/410/49 355/397/49
f 355/398/52 367/411/52 368/412/52 356/399/52
f 356/399/47 368/412/47 369/413/47 357/400/47
f 357/400/38 369/413/38 370/414/38 358/401/38
f 358/401/37 370/414/37 371/415/37 359/402/37
f 359/402/46 371/415/46 372/416/46 360/403/46
f 360/403/51 372/416/51 361/404/51 349/391/51
f 361/404/56 373/417/56 374/418/56 362/405/56
f 362/405/55 374/418/55 375/419/55 363/406/55
f 363/406/32 375/419/32 376/420/32 364/407/32
f 364/407/31 376/420/31 377/421/31 365/408/31
f 365/408/54 377/421/54 378/422/54 366/409/54
f 366/409/53 378/422/53 379/423/53 367/410/53
f 367/411/60 379/424/60 380/425/60 368/412/60
f 368/412/59 380/425/59 381/426/59 369/413/59
f 369/413/38 381/426/38 382/427/38 370/414/38
f 370/414/37 382/427/37 383/428/37 371/415/37
f 371/415/58 383/428/58 384/429/58 372/416/58
f 372/416/57 384/429/57 373/417/57 361/404/57
f 373/417/62 385/430/62 386/431/62 374/418/62
f 374/418/55 386/431/55 387/432/55 375/419/55
f 375/419/32 387/432/32 388/433/32 376/420/32
f 376/420/31 388/433/31 389/434/31 377/421/31
f 377/421/54 389/434/54 390/435/54 378/422/54
f 378/422/61 390/435/61 391/436/61 379/423/61
f 379/424/64 391/437/64 392/438/64 380/425/64
f 380/425/59 392/438/59 393/439/59 381/426/59
f 381/426/38 393/439/38 394/440/38 382/427/38
f 382/427/37 394/440/37 395/441/37 383/428/37
f 383/428/58 395/441/58 396/442/58 384/429/58
f 384/429/63 396/442/63 385/430/63 373/417/63
f 385/430/68 397/443/68 398/444/68 386/431/68
f 386/431/67 398/444/67 399/445/67 387/432/67
f 387/432/32 399/445/32 400/446/32 388/433/32
f 388/433/31 400/446/31 401/447/31 389/434/31
f 389/434/66 401/447/66 402/448/66 390/435/66
f 390/435/65 402/448/65 403/449/65 391/436/65
f 391/437/72 403/450/72 404/451/72 392/438/72
f 392/438/71 404/451/71 405/452/71 393/439/71
f 393/439/38 405/452/38 406/453/38 394/440/38
f 394/440/37 406/453/37 407/454/37 395/441/37
f 395/441/70 407/454/70 408/455/70 396/442/70
f 396/442/69 408/455/69 397/443/69 385/430/69
f 397/443/78 409/456/78 410/457/78 398/444/78
f 398/444/77 410/457/77 411/458/77 399/445/77
f 399/445/76 411/458/76 412/459/76 400/446/76
f 400/446/75 412/459/75 413/460/75 401/447/75
f 401/447/74 413/460/74 414/461/74 402/448/74
f 402/448/73 414/461/73 415/462/73 403/449/73
f 403/450/84 415/463/84 416/464/84 404/451/84
f 404/451/83 416/464/83 417/465/83 405/452/83
f 405/452/82 417/465/82 418/466/82 406/453/82
f 406/453/81 418/466/81 419/467/81 407/454/81
f 407/454/80 419/467/80 420/468/80 408/455/80
f 408/455/79 420/468/79 409/456/79 397/443/79
f 409/456/88 421/469/88 422/470/88 410/457/88
f 410/457/87 422/470/87 423/471/87 411/458/87
f 411/458/76 423/471/76 424/472/76 412/459/76
f 412/459/75 424/472/75 425/473/75 413/460/75
f 413/460/86 425/473/86 426/474/86 414/461/86
f 414/461/85 426/474/85 427/475/85 415/462/85
f 415/463/92 427/476/92 428/477/92 416/464/92
f 416/464/91 428/477/91 429/478/91 417/465/91
f 417/465/82 429/478/82 430/479/82 418/466/82
f 418/466/81 430/479/81 431/480/81 419/467/81
f 419/467/90 431/480/90 432/481/90 420/468/90
f 420/468/89 432/481/89 421/469/89 409/456/89
f 421/469/96 433/482/96 434/483/96 422/470/96
f 422/470/95 434/483/95 435/484/95 423/471/95
f 423/471/76 435/484/76 436/485/76 424/472/76
f 424/472/75 436/485/75 437/486/75 425/473/75
f 425/473/94 437/486/94 438/487/94 426/474/94
f 426/474/93 438/487/93 439/488/93 427/475/93
f 427/476/100 439/489/100 440/490/100 428/477/100
f 428/477/99 440/490/99 441/491/99 429/478/99
f 429/478/82 441/491/82 442/492/82 430/479/82
f 430/479/81 442/492/81 443/493/81 431/480/81
f 431/480/98 443/493/98 444/494/98 432/481/98
f 432/481/97 444/494/97 433/482/97 421/469/97
f 433/482/102 445/495/102 446/496/102 434/483/102
f 434/483/95 446/496/95 447/497/95 435/484/95
f 435/484/76 447/497/76 448/498/76 436/485/76
f 436/485/75 448/498/75 449/499/75 437/486/75
f 437/486/94 449/499/94 450/500/94 438/487/94
f 438/487/101 450/500/101 451/501/101 439/488/101
f 439/489/104 451/502/104 452/503/104 440/490/104
f 440/490/99 452/503/99 453/504/99 441/491/99
f 441/491/82 453/504/82 454/505/82 442/492/82
f 442/492/81 454/505/81 455/506/81 443/493/81
f 443/493/98 455/506/98 456/507/98 444/494/98
f 444/494/103 456/507/103 445/495/103 433/482/103
f 445/495/108 457/508/108 458/509/108 446/496/108
f 446/496/107 458/509/107 459/510/107 447/497/107
f 447/497/76 459/510/76 460/511/76 448/498/76
f 448/498/75 460/511/75 461/512/75 449/499/75
f 449/499/106 461/512/106 462/513/106 450/500/106
f 450/500/105 462/513/105 463/514/105 451/501/105
f 451/502/112 463/515/112 464/516/112 452/503/112
f 452/503/111 464/516/111 465/517/111 453/504/111
f 453/504/82 465/517/82 466/518/82 454/505/82
f 454/505/81 466/518/81 467/519/81 455/506/81
f 455/506/110 467/519/110 468/520/110 456/507/110
f 456/507/109 468/520/109 457/508/109 445/495/109
f 457/508/116 469/521/116 470/522/116 458/509/116
f 458/509/115 470/522/115 471/523/115 459/510/115
f 459/510/76 471/523/76 472/524/76 460/511/76
f 460/511/75 472/524/75 473/525/75 461/512/75
f 461/512/114 473/525/114 474/526/114 462/513/114
f 462/513/113 474/526/113 475/527/113 463/514/113
f 463/515/120 475/528/120 476/529/120 464/516/120
f 464/516/119 476/529/119 477/530/119 465/517/119
f 465/517/82 477/530/82 478/531/82 466/518/82
f 466/518/81 478/531/81 479/532/81 467/519/81
f 467/519/118 479/532/118 480/533/118 468/520/118
f 468/520/117 480/533/117 469/521/117 457/508/117
f 469/521/126 481/534/126 482/535/126 470/522/126
f 470/522/125 482/535/125 483/536/125 471/523/125
f 471/523/124 483/536/124 484/537/124 472/524/124
f 472/524/123 484/537/123 485/538/123 473/525/123
f 473/525/122 485/538/122 486/539/122 474/526/122
f 474/526/121 486/539/121 487/540/121 475/527/121
f 475/528/132 487/541/132 488/542/132 476/529/132
f 476/529/131 488/542/131 489/543/131 477/530/131
f 477/530/130 489/543/130 490/544/130 478/531/130
f 478/531/129 490/544/129 491/545/129 479/532/129
f 479/532/128 491/545/128 492/546/128 480/533/128
f 480/533/127 492/546/127 481/534/127 469/521/127
f 481/534/136 493/547/136 494/548/136 482/535/136
f 482/535/135 494/548/135 495/549/135 483/536/135
f 483/536/124 495/549/124 496/550/124 484/537/124
f 484/537/123 496/550/123 497/551/123 485/538/123
f 485/538/134 497/551/134 498/552/134 486/539/134
f 486/539/133 498/552/133 499/553/133 487/540/133
f 487/541/140 499/554/140 500/555/140 488/542/140
f 488/542/139 500/555/139 501/556/139 489/543/139
f 489/543/130 501/556/130 502/557/130 490/544/130
f 490/544/129 502/557/129 503/558/129 491/545/129
f 491/545/138 503/558/138 504/559/138 492/546/138
f 492/546/137 504/559/137 493/547/137 481/534/137
f 493/547/142 505/560/142 506/561/142 494/548/142
f 494/548/135 506/561/135 507/562/135 495/549/135
f 495/549/124 507/562/124 508/563/124 496/550/124
f 496/550/123 508/563/123 509/564/123 497/551/123
f 497/551/134 509/564/134 510/565/134 498/552/134
f 498/552/141 510/565/141 511/566/141 499/553/141
f 499/554/144 511/567/144 512/568/144 500/555/144
f 500/555/139 512/568/139 513/569/139 501/556/139
f 501/556/130 513/569/130 514/570/130 502/557/130
f 502/557/129 514/570/129 515/571/129 503/558/129
f 503/558/138 515/571/138 516/572/138 504/559/138
f 504/559/143 516/572/143 505/560/143 493/547/143
f 505/560/148 517/573/148 518/574/148 506/561/148
f 506/561/147 518/574/147 519/575/147 507/562/147
f 507/562/124 519/575/124 520/576/124 508/563/124
f 508/563/123 520/576/123 521/577/123 509/564/123
f 509/564/146 521/577/146 522/578/146 510/565/146
f 510/565/145 522/578/145 523/579/145 511/566/145
f 511/567/152 523/580/152 524/581/152 512/568/152
f 512/568/151 524/581/151 525/582/151 513/569/151
f 513/569/130 525/582/130 526/583/130 514/570/130
f 514/570/129 526/583/129 527/584/129 515/571/129
f 515/571/150 527/584/150 528/585/150 516/572/150
f 516/572/149 528/585/149 517/573/149 505/560/149
f 517/573/154 529/586/154 530/587/154 518/574/154
f 518/574/147 530/587/147 531/588/147 519/575/147
f 519/575/124 531/588/124 532/589/124 520/576/124
f 520/576/123 532/589/123 533/590/123 521/577/123
f 521/577/146 533/590/146 534/591/146 522/578/146
f 522/578/153 534/591/153 535/592/153 523/579/153
f 523/580/156 535/593/156 536/594/156 524/581/156
f 524/581/151 536/594/151 537/595/151 525/582/151
f 525/582/130 537/595/130 538/596/130 526/583/130
f 526/583/129 538/596/129 539/597/129 527/584/129
f 527/584/150 539/597/150 540/598/150 528/585/150
f 528/585/155 540/598/155 529/586/155 517/573/155
f 529/586/160 541/599/160 542/600/160 530/587/160
f 530/587/159 542/600/159 543/601/159 531/588/159
f 531/588/124 543/601/124 544/602/124 532/589/124
f 532/589/123 544/602/123 545/603/123 533/590/123
f 533/590/158 545/603/158 546/604/158 534/591/158
f 534/591/157 546/604/157 547/605/157 535/592/157
f 535/593/164 547/606/164 548/607/164 536/594/164
f 536/594/163 548/607/163 549/608/163 537/595/163
f 537/595/130 549/608/130 550/609/130 538/596/130
f 538/596/129 550/609/129 551/610/129 539/597/129
f 539/597/162 551/610/162 552/611/162 540/598/162
f 540/598/161 552/611/161 541/599/161 529/586/161
f 541/599/168 553/612/168 554/613/168 542/600/168
f 542/600/167 554/613/167 555/614/167 543/601/167
f 543/601/3 555/614/3 556/615/3 544/602/3
f 544/602/4 556/615/4 557/616/4 545/603/4
f 545/603/166 557/616/166 558/617/166 546/604/166
f 546/604/165 558/617/165 559/618/165 547/605/165
f 547/606/172 559/619/172 560/620/172 548/607/172
f 548/607/171 560/620/171 561/621/171 549/608/171
f 549/608/9 561/621/9 562/622/9 550/609/9
f 550/609/10 562/622/10 563/623/10 551/610/10
f 551/610/170 563/623/170 564/624/170 552/611/170
f 552/611/169 564/624/169 553/612/169 541/599/169
f 553/612/176 565/625/176 566/626/176 554/613/176
f 554/613/175 566/626/175 567/627/175 555/614/175
f 555/614/3 567/627/3 568/628/3 556/615/3
f 556/615/4 568/628/4 569/629/4 557/616/4
f 557/616/174 569/629/174 570/630/174 558/617/174
f 558/617/173 570/630/173 571/631/173 559/618/173
f 559/619/180 571/632/180 572/633/180 560/620/180
f 560/620/179 572/633/179 573/634/179 561/621/179
f 561/621/9 573/634/9 574/635/9 562/622/9
f 562/622/10 574/635/10 575/636/10 563/623/10
f 563/623/178 575/636/178 576/637/178 564/624/178
f 564/624/177 576/637/177 565/625/177 553/612/177
f 565/625/182 1/1/182 2/4/182 566/626/182
f 566/626/2 2/4/2 3/6/2 567/627/2
f 567/627/3 3/6/3 4/8/3 568/628/3
f 568/628/4 4/8/4 5/10/4 569/629/4
f 569/629/5 5/10/5 6/12/5 570/630/5
f 570/630/181 6/12/181 7/14/181 571/631/181
f 571/632/184 7/15/184 8/18/184 572/633/184
f 572/633/8 8/18/8 9/20/8 573/634/8
f 573/634/9 9/20/9 10/22/9 574/635/9
f 574/635/10 10/22/10 11/24/10 575/636/10
f 575/636/11 11/24/11 12/26/11 576/637/11
f 576/637/183 12/26/183 1/1/183 565/625/183
